Simulation
nRows=15
nColumns=15
endheader
time  TH_x TH_y TH_z SC_y  SC_z  SC_x  AC_y  AC_z  AC_x  GH_y  GH_z  GH_yy  EL_x  PS_y
8.073123595505619  0.000000  0.000000  0.000000  -23.417506162802688  6.07115429867561  -3.154574185139386  58.29482865079756  7.6268074997156035  7.827707974719376  -41.091910609444014  4.44403336123342  96.60074652254518  16.764650687894232  120.000000
8.113288389513109  0.000000  0.000000  0.000000  -23.056881052855626  5.960677966114227  -3.7097855973423077  58.39865127887771  7.187515382046778  8.132426322578008  -26.883458694655417  5.407093790992605  81.84937666365067  16.275005670924095  120.000000
8.153453183520599  0.000000  0.000000  0.000000  -22.69157401806125  5.836726584620584  -4.264852771205994  58.53133373341049  6.79310785106265  8.464199533557203  -16.458700181884236  6.635873141841515  70.70889961247073  15.72940714629816  120.000000
8.19361797752809  0.000000  0.000000  0.000000  -22.336496089326094  5.717497242000509  -4.788543298270512  58.699947005490515  6.474088937432968  8.820445127602095  -8.618779200887046  8.091395377266075  61.98185490249714  15.147016138488835  120.000000
8.23378277153558  0.000000  0.000000  0.000000  -22.00798871152237  5.623823971249801  -5.252587410155164  58.90975010819311  6.256938342796594  9.196530029160957  -2.5247383797198206  9.76328949329034  54.83381111462693  14.550206271632925  120.000000
8.273947565543072  0.000000  0.000000  0.000000  -21.72178531762168  5.57329257936922  -5.633253207095236  59.1625896639489  6.160170037063395  9.587740710267127  2.3364543942037423  11.649956286732701  48.759694640479175  13.961686516630422  120.000000
8.314112359550561  0.000000  0.000000  0.000000  -21.48912406932394  5.577654246801311  -5.912076195495747  59.45602108934787  6.192510568513125  9.989665159480047  6.274497425556297  13.745932224435858  43.4623942353928  13.402162810246521  120.000000
8.354277153558053  0.000000  0.000000  0.000000  -21.312992714831033  5.645508683037488  -6.075844864903201  59.79020250458913  6.354527339009513  10.395095566684432  9.503978598151978  16.039006558392217  38.74466441015772  12.887748142737848  120.000000
8.394441947565543  0.000000  0.000000  0.000000  -21.187712951920858  5.780425653074421  -6.114145530870457  60.164987226282115  6.640839564116807  10.798993753844929  12.179775310425237  18.510674434906896  34.47357065266128  12.429064231908585  120.000000
8.434606741573035  0.000000  0.000000  0.000000  -21.103981187774323  5.979336894195179  -6.018829406929794  60.57525766892637  7.040411591044153  11.202074673210255  14.408337559452162  21.13599582491806  30.568238845541284  12.030720968944522  120.000000
8.474771535580524  0.000000  0.000000  0.000000  -21.05101723101322  6.236101706650134  -5.787503005151527  61.015368672280715  7.53737567380691  11.602772191838078  16.26554831517807  23.885083162994523  26.97886699056129  11.69082890376873  120.000000
8.514936329588014  0.000000  0.000000  0.000000  -21.01977237037469  6.544117681038868  -5.4225016496905125  61.47958180027121  8.11175071977261  11.997537228029902  17.808038938138186  26.72327872490277  23.67436312299305  11.403966244512198  120.000000
8.555101123595506  0.000000  0.000000  0.000000  -21.005817296550145  6.895215097493597  -4.928547371299602  61.959998809349585  8.739589901712872  12.384314063139456  19.08291080550983  29.613927987781338  20.630699523561507  11.163306689297743  120.000000
8.595265917602996  0.000000  0.000000  0.000000  -21.007860013289015  7.278916194584134  -4.312718780533896  62.44587636206498  9.394978909698459  12.761020864855713  20.128593811070676  32.52055757906814  17.828472514480225  10.96208812308562  120.000000
8.635430711610487  0.000000  0.000000  0.000000  -21.028308863776708  7.684546800575745  -3.5837707107145573  62.92482594014802  10.051872487534002  13.125271750741291  20.977194876508026  35.408764840014854  15.250390612016128  10.794336473499257  120.000000
